<?xml version="1.0" encoding="UTF-8"?>
<!DOCTYPE svg PUBLIC "-//W3C//DTD SVG 1.1//EN" "http://www.w3.org/Graphics/SVG/1.1/DTD/svg11.dtd">
<svg xmlns="http://www.w3.org/2000/svg" version="1.1" width="109px" height="41px" style="shape-rendering:geometricPrecision; text-rendering:geometricPrecision; image-rendering:optimizeQuality; fill-rule:evenodd; clip-rule:evenodd" xmlns:xlink="http://www.w3.org/1999/xlink">
<g><path style="opacity:0.996" fill="#39db4a" d="M 3.5,-0.5 C 12.1667,-0.5 20.8333,-0.5 29.5,-0.5C 31.1436,0.316435 32.3103,1.64977 33,3.5C 33.6667,14.5 33.6667,25.5 33,36.5C 32.3103,38.3502 31.1436,39.6836 29.5,40.5C 20.8333,40.5 12.1667,40.5 3.5,40.5C 1.83333,39.5 0.5,38.1667 -0.5,36.5C -0.5,25.5 -0.5,14.5 -0.5,3.5C 0.5,1.83333 1.83333,0.5 3.5,-0.5 Z"/></g>
<g><path style="opacity:0.835" fill="#000000" d="M 50.5,6.5 C 51.8333,6.5 53.1667,6.5 54.5,6.5C 54.3433,7.87344 54.51,9.20677 55,10.5C 59.4933,16.1348 59.66,21.9681 55.5,28C 46.0535,32.4433 40.0535,29.6099 37.5,19.5C 38.868,12.132 43.2013,7.79863 50.5,6.5 Z M 45.5,14.5 C 49.7029,13.7021 52.3695,15.3688 53.5,19.5C 51.2947,25.1781 48.128,25.8448 44,21.5C 43.3911,18.9348 43.8911,16.6015 45.5,14.5 Z"/></g>
<g><path style="opacity:1" fill="#f4fdf5" d="M 13.5,13.5 C 12.5655,14.5676 12.2322,15.901 12.5,17.5C 15.5,17.5 18.5,17.5 21.5,17.5C 22.8333,19.1667 22.8333,20.8333 21.5,22.5C 18.5,22.5 15.5,22.5 12.5,22.5C 12.5,25.5 12.5,28.5 12.5,31.5C 10.8561,31.7135 9.35613,31.3802 8,30.5C 7.33333,23.5 7.33333,16.5 8,9.5C 13.7036,7.84672 19.537,7.34672 25.5,8C 26.8333,9.66667 26.8333,11.3333 25.5,13C 21.5138,13.4988 17.5138,13.6655 13.5,13.5 Z"/></g>
<g><path style="opacity:0.833" fill="#000000" d="M 66.5,8.5 C 79.5787,8.40291 83.7454,14.4029 79,26.5C 72.3265,32.0999 66.3265,31.4333 61,24.5C 59.0165,17.6603 60.8498,12.3269 66.5,8.5 Z M 68.5,14.5 C 73.85,13.8632 76.0166,16.1966 75,21.5C 70.872,25.8448 67.7053,25.1781 65.5,19.5C 66.2599,17.6396 67.2599,15.973 68.5,14.5 Z"/></g>
<g><path style="opacity:0.842" fill="#000000" d="M 83.5,8.5 C 90.0165,7.23698 95.5165,8.90365 100,13.5C 102.668,27.4887 97.0011,32.4887 83,28.5C 82.2075,21.7526 82.3742,15.0859 83.5,8.5 Z M 88.5,14.5 C 95.4863,14.331 97.153,17.1643 93.5,23C 91.9751,24.0086 90.3084,24.5086 88.5,24.5C 88.5,21.1667 88.5,17.8333 88.5,14.5 Z"/></g>
<g><path style="opacity:0.822" fill="#000000" d="M 108.5,8.5 C 108.5,15.5 108.5,22.5 108.5,29.5C 106.234,29.8588 104.401,29.1922 103,27.5C 102.294,21.1301 102.461,14.7967 103.5,8.5C 105.167,8.5 106.833,8.5 108.5,8.5 Z"/></g>
<g><path style="opacity:1" fill="#98eca0" d="M 13.5,13.5 C 13.5,14.5 13.5,15.5 13.5,16.5C 16.3854,16.1936 19.0521,16.5269 21.5,17.5C 18.5,17.5 15.5,17.5 12.5,17.5C 12.2322,15.901 12.5655,14.5676 13.5,13.5 Z"/></g>
<g><path style="opacity:1" fill="#93ea9a" d="M 21.5,22.5 C 19.0521,23.4731 16.3854,23.8064 13.5,23.5C 13.8064,26.3854 13.4731,29.0521 12.5,31.5C 12.5,28.5 12.5,25.5 12.5,22.5C 15.5,22.5 18.5,22.5 21.5,22.5 Z"/></g>
</svg>
